<svg width="29" height="20" viewBox="0 0 29 20" fill="none" xmlns="http://www.w3.org/2000/svg">
<path d="M9.3542 13.784H5.61909C3.25215 13.784 1.33337 12.5585 1.33337 10.7614C1.33337 8.9644 3.25215 7.50762 5.61909 7.50762C5.78005 7.50762 5.93893 7.51436 6.09528 7.52748V7.50762H6.15423C6.11532 7.27074 6.09528 7.02942 6.09528 6.78455C6.09528 3.58983 9.50644 1 13.7143 1C16.5638 1 19.0479 2.1876 20.3548 3.94642C20.6742 3.91075 21.0009 3.89227 21.3334 3.89227C25.0153 3.89227 28 6.15838 28 8.95375C28 11.5036 25.5165 13.3819 22.2858 13.7328H18.8334M14.1905 7.86915V19M14.1905 19L10.8125 16.5008M14.1905 19L17.4792 16.5008" stroke="white" stroke-linecap="round" stroke-linejoin="round"/>
</svg>
