<svg width="39" height="26" viewBox="0 0 39 26" fill="none" xmlns="http://www.w3.org/2000/svg">
<g clip-path="url(#clip0_34_6)">
<path d="M0.158286 17.1797L0.201067 16.7941C0.201067 15.4622 0.334437 14.1328 0.596148 12.8284L0.956004 11.0358C0.956004 11.0358 2.179 5.3952 3.97575 2.77392C4.56208 1.91769 4.80115 1.95274 5.48562 1.27175C5.83793 0.921249 6.31353 0.663377 6.7816 0.475606C7.56421 0.162655 8.40722 0.0199489 9.25275 0.0199489C9.25275 0.0199489 10.4481 0.0199489 11.4572 0.0199489C12.3706 0.0199489 13.2766 0.167662 14.1498 0.463088L14.1925 0.47811C15.7578 1.00387 17.396 1.27175 19.0493 1.27175L19.2003 1.27175C21.7872 1.27175 24.3691 0.971321 26.9107 0.367951L27.8418 0.147633C28.2721 0.044985 28.715 -0.0100944 29.1579 -7.99751e-05C32.1298 0.0675175 34.4953 1.48456 35.678 4.02573C36.6016 6.01109 37.9428 9.03295 38.1945 11.2862C38.728 14.7337 38.9947 18.2187 38.9947 21.7062V21.8014C38.9947 22.3346 38.5241 24.8057 37.9881 24.8057C37.8095 24.9835 37.5981 25.1212 37.3641 25.2138C35.6428 25.8998 33.6422 26.0575 31.9537 24.8433C31.9361 24.8307 31.9185 24.8182 31.9008 24.8057C30.6174 23.8618 29.8877 22.8028 28.6294 21.3006C28.5363 21.1905 28.4432 21.0803 28.3476 20.9752C26.5811 19.0073 24.1376 17.763 21.5154 17.3725C20.0056 17.1472 18.468 17.1497 16.9581 17.3825C14.9928 17.6829 13.1985 18.6643 11.8195 20.0914L11.0017 20.9376C9.82147 22.1619 8.56576 23.311 7.3327 24.4852C6.76398 25.026 5.77501 25.5568 5.08802 25.7971C4.88671 25.8672 4.66777 25.8647 4.46394 25.9223C4.07892 26.0325 3.44729 25.9874 3.37431 25.9924C2.16641 26.06 1.48446 25.5217 0.825148 24.5128C0.78237 24.4452 0.739584 24.3751 0.696806 24.305C0.263976 23.5439 0.445162 23.8043 0.193514 22.8028C0.145705 22.61 0.105441 22.2796 0.0727257 21.8915C-0.0581298 20.3217 -0.025415 18.742 0.150736 17.1772L0.158286 17.1797ZM28.8081 13.7898C31.6567 13.7898 33.9668 11.4915 33.9668 8.65741C33.9668 5.82332 31.6567 3.525 28.8081 3.525C25.9595 3.525 23.6494 5.82332 23.6494 8.65741C23.6494 11.4915 25.9595 13.7898 28.8081 13.7898ZM10.8155 13.7898C13.7346 13.7898 16.1 11.4915 16.1 8.65741C16.1 5.82332 13.7346 3.525 10.8155 3.525C7.89638 3.525 5.53092 5.82332 5.53092 8.65741C5.53092 11.4915 7.89638 13.7898 10.8155 13.7898Z" fill="white"/>
<path d="M25.4111 7.283V9.78662H27.4243V12.0399H30.444V9.78662H32.2056V7.283H30.444V5.02975L27.4243 5.02975V7.283H25.4111Z" fill="white"/>
<path d="M10.6899 7.53337C9.78653 7.53337 9.0542 6.80478 9.0542 5.90602C9.0542 5.00726 9.78653 4.27867 10.6899 4.27867C11.5933 4.27867 12.3256 5.00726 12.3256 5.90602C12.3256 6.80478 11.5933 7.53337 10.6899 7.53337Z" fill="white"/>
<path d="M13.458 10.2873C12.5546 10.2873 11.8223 9.55875 11.8223 8.65999C11.8223 7.76123 12.5546 7.03264 13.458 7.03264C14.3614 7.03264 15.0937 7.76123 15.0937 8.65999C15.0937 9.55875 14.3614 10.2873 13.458 10.2873Z" fill="white"/>
<path d="M8.17345 10.2873C7.27008 10.2873 6.53775 9.55875 6.53775 8.65999C6.53775 7.76123 7.27008 7.03264 8.17345 7.03264C9.07682 7.03264 9.80914 7.76123 9.80914 8.65999C9.80914 9.55875 9.07682 10.2873 8.17345 10.2873Z" fill="white"/>
<path d="M10.6899 13.0413C9.78653 13.0413 9.0542 12.3127 9.0542 11.414C9.0542 10.5152 9.78653 9.78661 10.6899 9.78661C11.5933 9.78661 12.3256 10.5152 12.3256 11.414C12.3256 12.3127 11.5933 13.0413 10.6899 13.0413Z" fill="white"/>
</g>
<defs>
<clipPath id="clip0_34_6">
<rect width="39" height="26" fill="white" transform="matrix(-1 0 0 1 39 0)"/>
</clipPath>
</defs>
</svg>
