<svg width="74" height="79" viewBox="0 0 74 79" fill="none" xmlns="http://www.w3.org/2000/svg">
<g clip-path="url(#clip0_46_218)">
<path d="M27.7211 37.3874L34.9043 52.5884C35.7715 54.4388 38.2864 54.3776 39.0813 52.4966L47.3051 33.1819L51.6411 44.1468H65.2415L38.8645 72.6677C37.8383 73.7841 36.1762 73.7841 35.1501 72.6677L8.75864 44.1468H24.527L27.7211 37.3874ZM5.53559 11.405L5.88247 11.0227C13.3258 2.97875 25.5098 2.97875 32.9676 11.0227L37 15.3964L41.0325 11.038C48.4758 2.97875 60.6743 2.97875 68.1176 11.038L68.4645 11.405C75.5032 19.0208 75.8067 31.148 69.5196 39.2531H54.7196L49.5309 26.0708C48.7504 24.098 46.12 24.0521 45.2817 26.0096L36.87 45.7831L29.7879 30.8115C28.9352 29.007 26.5071 29.007 25.6543 30.8115L21.6653 39.2531H4.48051C-1.80659 31.148 -1.50307 19.0208 5.53559 11.405Z" fill="white"/>
</g>
<defs>
<clipPath id="clip0_46_218">
<rect width="74" height="78.2988" fill="white" transform="matrix(-1 0 0 1 74 0.10376)"/>
</clipPath>
</defs>
</svg>
