<svg width="76" height="81" viewBox="0 0 76 81" fill="none" xmlns="http://www.w3.org/2000/svg">
<path d="M60.6908 12.5197C57.3656 7.19568 50.8778 5.8803 46.0232 8.81498C41.6481 3.87244 34.2751 3.9315 29.9424 8.81152C22.9421 4.56775 13.8057 9.60546 13.5146 18.3617C6.65683 16.659 0 22.0924 0 29.5415V38.4865C0 43.6288 2.11969 48.5312 5.81578 51.9362L20.3196 65.2991C20.9508 65.8805 20.7812 66.1744 20.7812 70.4669C20.7812 73.2426 22.9079 75.4928 25.5312 75.4928H62.9375C65.5608 75.4928 67.6875 73.2426 67.6875 70.4669C67.6875 66.7739 67.5368 65.638 68.2786 63.8122L74.6369 48.1602C75.5415 45.9335 76 43.5784 76 41.1603V23.1859C76 14.8869 67.9378 9.26056 60.6908 12.5197ZM68.875 41.1603C68.876 42.5438 68.6092 43.9129 68.091 45.1831L61.7326 60.835C60.9563 62.7465 60.5625 64.7678 60.5625 66.8425V67.9539H27.9062V66.3384C27.9062 63.7673 26.8464 61.316 24.9984 59.6135L10.4945 46.2508C8.35317 44.2778 7.125 41.4477 7.125 38.4864V29.5413C7.125 24.3256 14.8438 24.274 14.8438 29.6476V36.1229C14.8437 36.4821 14.9165 36.8372 15.0572 37.1641C15.1978 37.491 15.4031 37.7823 15.6591 38.0182L16.6982 38.9754C17.0419 39.2921 17.4645 39.4975 17.9155 39.567C18.3665 39.6365 18.8269 39.5672 19.2418 39.3674C19.6566 39.1676 20.0083 38.8457 20.255 38.4402C20.5016 38.0347 20.6328 37.5626 20.6328 37.0804V18.7715C20.6328 13.5733 28.3516 13.4746 28.3516 18.8778V23.0794C28.3516 24.4671 29.415 25.5923 30.7266 25.5923H31.7656C33.0772 25.5923 34.1406 24.4671 34.1406 23.0794V16.6174C34.1406 11.4134 41.8594 11.3284 41.8594 16.7238V23.0794C41.8594 24.4671 42.9226 25.5923 44.2344 25.5923H45.2734C46.5852 25.5923 47.6484 24.4671 47.6484 23.0794V18.7714C47.6484 13.5836 55.3672 13.4659 55.3672 18.8777V23.0792C55.3672 24.467 56.4304 25.5922 57.7422 25.5922H58.7812C60.093 25.5922 61.1562 24.467 61.1562 23.0792C61.1562 17.8733 68.875 17.7999 68.875 23.1855V41.1603Z" fill="white"/>
</svg>
