<svg width="32" height="32" viewBox="0 0 32 32" fill="none" xmlns="http://www.w3.org/2000/svg">
<path d="M11 1H4.33333C2.49238 1 1 2.49238 1 4.33333V21V27.6667C1 29.5076 2.49238 31 4.33333 31H21H27.6667C29.5076 31 31 29.5076 31 27.6667V11V4.33333C31 2.49238 29.5076 1 27.6667 1H11.3125M9.4375 11.5707V9.74255M22.5625 11.5707V9.74255M10.7698 21.6253C12.9075 23.2816 17.7014 23.2816 20.6885 21.6253M15.0625 17.055L15.4508 16.6764C15.8025 16.3336 16 15.8686 16 15.3837V10.6566" stroke="white" stroke-width="2" stroke-linecap="round"/>
</svg>
