<svg width="76" height="43" viewBox="0 0 76 43" fill="none" xmlns="http://www.w3.org/2000/svg">
<path d="M57.007 0.0332033H19.0014C15.8689 0.032705 12.7849 0.894959 10.0239 2.5432C7.26295 4.19144 4.91072 6.57452 3.17664 9.48029C1.44256 12.3861 0.380421 15.7243 0.0847977 19.1979C-0.210826 22.6715 0.269234 26.1726 1.48224 29.3896C2.69524 32.6065 4.60355 35.4395 7.03727 37.6362C9.47099 39.833 12.3546 41.3253 15.4314 41.9805C18.5082 42.6356 21.6827 42.4332 24.6722 41.3912C27.6618 40.3493 30.3736 38.5001 32.5664 36.0083H43.4336C45.6261 38.4998 48.3376 40.3488 51.3268 41.3909C54.316 42.4329 57.4901 42.6356 60.5666 41.9809C63.6431 41.3262 66.5265 39.8345 68.9603 37.6384C71.3941 35.4423 73.3027 32.6101 74.5162 29.3938C75.7297 26.1776 76.2104 22.677 75.9157 19.2037C75.6209 15.7304 74.5598 12.3921 72.8268 9.48607C71.0938 6.58 68.7426 4.19626 65.9825 2.54703C63.2224 0.897795 60.1391 0.0342315 57.007 0.0332033ZM29.4506 22.7822C29.4506 23.2031 29.3005 23.6068 29.0333 23.9044C28.766 24.2021 28.4036 24.3693 28.0257 24.3693H21.8512V31.2469C21.8512 31.6678 21.701 32.0715 21.4338 32.3692C21.1666 32.6668 20.8042 32.834 20.4263 32.834H17.5765C17.1986 32.834 16.8361 32.6668 16.5689 32.3692C16.3017 32.0715 16.1516 31.6678 16.1516 31.2469V24.3693H9.97701C9.5991 24.3693 9.23667 24.2021 8.96945 23.9044C8.70223 23.6068 8.55211 23.2031 8.55211 22.7822V19.6079C8.55211 19.187 8.70223 18.7833 8.96945 18.4856C9.23667 18.188 9.5991 18.0208 9.97701 18.0208H16.1516V11.1432C16.1516 10.7222 16.3017 10.3185 16.5689 10.0209C16.8361 9.72324 17.1986 9.55602 17.5765 9.55602H20.4263C20.8042 9.55602 21.1666 9.72324 21.4338 10.0209C21.701 10.3185 21.8512 10.7222 21.8512 11.1432V18.0208H28.0257C28.4036 18.0208 28.766 18.188 29.0333 18.4856C29.3005 18.7833 29.4506 19.187 29.4506 19.6079V22.7822ZM55.0988 32.834C54.1594 32.834 53.2411 32.5238 52.46 31.9424C51.6789 31.3611 51.0702 30.5349 50.7107 29.5681C50.3512 28.6014 50.2571 27.5377 50.4404 26.5115C50.6236 25.4852 51.076 24.5425 51.7403 23.8027C52.4045 23.0628 53.2508 22.5589 54.1722 22.3548C55.0935 22.1506 56.0485 22.2554 56.9164 22.6558C57.7843 23.0563 58.5261 23.7343 59.048 24.6044C59.5699 25.4744 59.8484 26.4972 59.8484 27.5436C59.8484 28.9467 59.348 30.2923 58.4573 31.2845C57.5666 32.2766 56.3585 32.834 55.0988 32.834ZM62.6982 20.1369C61.7588 20.1369 60.8405 19.8267 60.0595 19.2453C59.2784 18.664 58.6696 17.8378 58.3101 16.8711C57.9506 15.9043 57.8566 14.8406 58.0398 13.8144C58.2231 12.7881 58.6755 11.8454 59.3397 11.1056C60.004 10.3657 60.8503 9.86181 61.7716 9.65768C62.693 9.45355 63.648 9.55831 64.5158 9.95874C65.3837 10.3592 66.1255 11.0372 66.6474 11.9073C67.1693 12.7773 67.4479 13.8001 67.4479 14.8465C67.4479 16.2496 66.9475 17.5952 66.0568 18.5874C65.166 19.5796 63.9579 20.1369 62.6982 20.1369Z" fill="white"/>
</svg>
